<?xml version="1.0" encoding="utf-8"?>
<!-- Generator: Adobe Illustrator 21.1.0, SVG Export Plug-In . SVG Version: 6.00 Build 0)  -->
<svg version="1.1" id="Layer_1" xmlns="http://www.w3.org/2000/svg" xmlns:xlink="http://www.w3.org/1999/xlink" x="0px" y="0px"
	 viewBox="0 0 265 95.3" style="enable-background:new 0 0 265 95.3;" xml:space="preserve">
<style type="text/css">
	.logo-svg{fill:#fff;}
</style>
<g>
	<g>
		<polygon class="logo-svg" points="125.4,41.8 121.4,49.7 117.2,41.8 110.9,41.8 118.4,55.2 113.1,65 119.3,65 131.7,41.8 		"/>
		<path class="logo-svg" d="M136.6,44.3L136.6,44.3c1.1-1.9,2.9-2.8,5.1-2.8h1.1v5.3c-0.8-0.4-1.5-0.5-2.3-0.5c-3.1,0-3.8,2-3.8,4.7v6.3
			h-5.5V41.8h5.5V44.3z"/>
		<path class="logo-svg" d="M153.8,47.3c-0.3-1.5-1.6-2.5-3.1-2.5c-1.6,0-2.9,0.8-3.3,2.5H153.8z M158.9,50.5h-11.6
			c0,2.2,1.2,3.4,3.4,3.4c1.2,0,2-0.4,2.6-1.4h5.3c-0.9,3.7-4.4,5.3-7.9,5.3c-5.1,0-9-2.9-9-8.3c0-5.2,3.5-8.3,8.6-8.3
			c5.4,0,8.5,3.3,8.5,8.6V50.5z"/>
		<path class="logo-svg" d="M164.8,49.6c0,2,1.3,3.5,3.5,3.5c2.2,0,3.5-1.5,3.5-3.5c0-1.9-1.3-3.5-3.5-3.5
			C166.1,46,164.8,47.7,164.8,49.6 M159.5,32.2h5.5v11.1c1.2-1.4,3-2,4.8-2c4.6,0,7.8,3.8,7.8,8.3c0,4.5-3.2,8.3-7.8,8.3
			c-1.8,0-3.7-0.7-4.7-2.2H165v1.7h-5.5V32.2z"/>
		<path class="logo-svg" d="M105.5,49.6c0-1.9-1.3-3.5-3.5-3.5c-2.2,0-3.5,1.6-3.5,3.5c0,2,1.3,3.5,3.5,3.5
			C104.2,53,105.5,51.5,105.5,49.6 M110.8,57.3h-5.5v-1.7h-0.1c-1,1.5-2.9,2.2-4.7,2.2c-4.6,0-7.8-3.8-7.8-8.3
			c0-4.4,3.2-8.3,7.8-8.3c1.8,0,3.6,0.7,4.8,2V32.2h5.5V57.3z"/>
		<path class="logo-svg" d="M183,49.6c0,2,1.3,3.5,3.5,3.5s3.5-1.5,3.5-3.5c0-1.9-1.3-3.5-3.5-3.5S183,47.7,183,49.6 M195.4,57.3h-5.5
			v-1.7h-0.1c-1,1.5-2.9,2.2-4.7,2.2c-4.6,0-7.8-3.8-7.8-8.3c0-4.4,3.2-8.3,7.8-8.3c1.8,0,3.7,0.7,4.8,2v-1.5h5.5V57.3z"/>
		<path class="logo-svg" d="M202.8,44.3L202.8,44.3c1.1-1.9,2.9-2.8,5.1-2.8h1.1v5.3c-0.8-0.4-1.5-0.5-2.3-0.5c-3.1,0-3.8,2-3.8,4.7v6.3
			h-5.5V41.8h5.5V44.3z"/>
		<path class="logo-svg" d="M213.3,54.4c0,1.9-1.6,3.5-3.5,3.5c-2,0-3.5-1.6-3.5-3.5c0-2,1.6-3.5,3.5-3.5
			C211.7,50.8,213.3,52.4,213.3,54.4"/>
		<path class="logo-svg" d="M220.4,43.8L220.4,43.8c1.3-1.9,2.9-2.5,5-2.5c4.2,0,5.8,2.6,5.8,6.4v9.6h-5.5v-7.6c0-1.5,0.2-4.1-2.5-4.1
			c-2.2,0-2.9,1.7-2.9,3.6v8h-5.5V41.8h5.5V43.8z"/>
		<path class="logo-svg" d="M237.8,49.6c0,2,1.3,3.5,3.5,3.5c2.2,0,3.5-1.5,3.5-3.5c0-1.9-1.3-3.5-3.5-3.5
			C239.1,46,237.8,47.7,237.8,49.6 M250.7,49.6c0,5.3-4.4,8.3-9.3,8.3c-5,0-9.3-3-9.3-8.3s4.4-8.3,9.3-8.3S250.7,44.3,250.7,49.6"/>
	</g>
</g>
<g>
	<path class="logo-svg" d="M16.2,87.8h-1.5V54.5c0-8.1,2.1-13,5.3-17.9l1-1.5c0.6-0.9,1.6-1.3,2.6-0.9c1,0.3,1.6,1.3,1.6,2.3l0,0.1
		l-0.8,7.6l25,4.1l-2.4,6.2c-0.7,2.7-2.8,4.8-5.5,5.6l-13.2,4.3l-0.9-2.9l13.3-4.3c1.7-0.5,3-1.9,3.5-3.6l0-0.2l1.1-2.8l-24.1-4
		l0.8-7.2c-2.5,4.1-4,8.3-4,14.9v30.3c3.4,0,11.3,0,11.6,0c9.5-0.2,18.3-4.1,25-10.8c6.6-6.8,10.3-15.8,10.3-25.3
		c0-9.5-3.7-18.5-10.4-25.3c-6.7-6.8-15.6-10.6-25.1-10.8c-0.3,0-8,0-11.4,0v17.2h-3.1V9.5h1.5c0.1,0,12.7,0,13,0
		c10.3,0.2,20,4.3,27.2,11.7c7.2,7.4,11.2,17.1,11.2,27.5c0,10.3-4,20-11.2,27.4c-7.2,7.4-16.8,11.5-27.1,11.8
		C29.1,87.8,16.3,87.8,16.2,87.8"/>
</g>
</svg>
